<svg width="20" height="20" viewBox="0 0 20 20" fill="none" xmlns="http://www.w3.org/2000/svg">
<path d="M0 4.16667L0 15.8333C0 18.1342 1.86583 20 4.16667 20H15.8333C18.1342 20 20 18.1342 20 15.8333V4.16667C20 1.865 18.1342 4.76837e-07 15.8333 4.76837e-07H4.16667C1.86583 4.76837e-07 0 1.865 0 4.16667ZM15.8333 13.3333V15.8333H6.66667V13.3333H15.8333ZM5.61 14.5833C5.61 15.3883 4.95167 16.0417 4.14 16.0417C3.32833 16.0417 2.67 15.3883 2.67 14.5833C2.67 13.7783 3.32833 13.125 4.14 13.125C4.95167 13.125 5.61 13.7775 5.61 14.5833ZM15.8333 3.33333L15.8333 5.83333H11.1633C8.35667 5.83333 8.56917 9.16667 11.1633 9.16667H15.8333V11.6667H6.66667V9.16667H8.1375C5.9825 8.00333 5.82333 3.33333 10.2008 3.33333H15.8333Z" fill="black"/>
</svg>
